<svg width="580" height="400" xmlns="http://www.w3.org/2000/svg">
 <!-- Created with Method Draw - http://github.com/duopixel/Method-Draw/ -->
 <g>
  <title>background</title>
  <rect fill="none" id="canvas_background" height="402" width="582" y="-1" x="-1"/>
  <g display="none" overflow="visible" y="0" x="0" height="100%" width="100%" id="canvasGrid">
   <rect fill="url(#gridpattern)" stroke-width="0" y="0" x="0" height="100%" width="100%"/>
  </g>
 </g>
 <g>
  <title>Layer 1</title>
  <ellipse ry="107" rx="107" id="svg_3" cy="200" cx="290" stroke-opacity="null" stroke-width="0" stroke="#000" fill="#ffffff"/>
  <path stroke="#000" id="svg_4" d="m307.558334,124.642317c7.226005,-9.013526 17.11642,-16.647048 26.498103,-20.451478c10.050964,-4.07584 5.591696,-5.843809 -4.776693,-1.893824c-4.36211,1.661793 -5.608424,0.455149 -5.608424,-5.429925c0,-14.041318 19.106157,-22.729677 65.076592,-29.592975c38.897805,-5.807395 67.575422,-12.338187 79.46578,-18.096874l9.689169,-4.692643l0,8.164735c0,10.095818 -8.221843,25.348153 -17.322679,32.13529c-9.65436,7.199968 -42.745861,20.490044 -58.984396,23.689092c-14.548289,2.866085 -45.61877,3.709844 -62.224485,1.689795c-8.27531,-1.006661 -10.901634,-0.237521 -15.189467,4.44836c-2.851293,3.115986 -5.184183,7.548961 -5.184183,9.85102c0,2.613475 -2.751436,4.185551 -7.325478,4.185551c-5.432588,0 -6.495589,-1.035158 -4.113831,-4.006126l-0.000007,0z" stroke-opacity="null" stroke-width="0" fill="#ffffff"/>
 </g>
</svg>